<svg xmlns="http://www.w3.org/2000/svg" xmlns:xlink="http://www.w3.org/1999/xlink" viewBox="0 0 85.65 85.65"><defs><style>.cls-1{isolation:isolate;}.cls-2{fill:url(#linear-gradient);}.cls-3{fill:#181425;}.cls-4{mix-blend-mode:screen;fill:url(#radial-gradient);}</style><linearGradient id="linear-gradient" x1="588.98" y1="72.98" x2="528.7" y2="12.7" gradientTransform="matrix(-0.16, -0.99, -0.99, 0.16, 175.2, 587.43)" gradientUnits="userSpaceOnUse"><stop offset="0" stop-color="#ff1f3e"/><stop offset="1" stop-color="#fc4133"/></linearGradient><radialGradient id="radial-gradient" cx="-150.71" cy="-467.49" fx="-168.17779773886477" fy="-490.68179088465024" r="64.42" gradientTransform="matrix(-0.71, -0.71, -0.71, 0.71, -398.82, 272.83)" gradientUnits="userSpaceOnUse"><stop offset="0.42"/><stop offset="0.49" stop-color="#040404"/><stop offset="0.56" stop-color="#111"/><stop offset="0.64" stop-color="#262626"/><stop offset="0.71" stop-color="#444"/><stop offset="0.79" stop-color="#6a6a6a"/><stop offset="0.86" stop-color="#999"/><stop offset="0.94" stop-color="#cfcfcf"/><stop offset="1" stop-color="#fff"/></radialGradient></defs><g class="cls-1"><g id="Layer_2" data-name="Layer 2"><g id="Layer_1-2" data-name="Layer 1"><circle class="cls-2" cx="42.82" cy="42.82" r="42.82" transform="translate(-6.34 78.18) rotate(-80.72)"/><path class="cls-3" d="M9.15,42.82A33.68,33.68,0,1,1,42.82,76.49,33.72,33.72,0,0,1,9.15,42.82Zm4,0A29.64,29.64,0,1,0,42.82,13.19,29.67,29.67,0,0,0,13.19,42.82Z"/><path class="cls-3" d="M21,45.86a2,2,0,0,0,1.06-.31L29.49,41a2,2,0,0,0,1-1.71,2,2,0,0,0-.94-1.72l-7.6-4.76a2,2,0,1,0-2.15,3.42l4.85,3L20,42.12A2,2,0,0,0,21,45.86Z"/><path class="cls-3" d="M64.61,45.86a2,2,0,0,0,1.07-3.74L61,39.26l4.85-3a2,2,0,0,0-2.15-3.42l-7.6,4.76a2,2,0,0,0,0,3.43l7.4,4.56A2,2,0,0,0,64.61,45.86Z"/><path class="cls-3" d="M25.39,57.12a18.49,18.49,0,0,1,34.87,0Z"/><path class="cls-3" d="M23.74,58.29a2,2,0,0,1-.25-1.84,20.5,20.5,0,0,1,38.67,0,2,2,0,0,1-1.9,2.69H25.39A2,2,0,0,1,23.74,58.29ZM42.82,46.8a16.51,16.51,0,0,0-14.29,8.3H57.12A16.52,16.52,0,0,0,42.82,46.8Z"/><circle class="cls-4" cx="42.82" cy="42.82" r="38.35"/></g></g></g></svg>