<svg xmlns="http://www.w3.org/2000/svg" xmlns:xlink="http://www.w3.org/1999/xlink" viewBox="0 0 85.65 85.65"><defs><style>.cls-1{isolation:isolate;}.cls-2{fill:url(#linear-gradient);}.cls-3{fill:#181425;}.cls-4{mix-blend-mode:screen;fill:url(#radial-gradient);}</style><linearGradient id="linear-gradient" x1="-192.18" y1="72.98" x2="-252.46" y2="12.7" gradientTransform="matrix(-0.32, -0.95, -0.95, 0.32, 13.35, -181.67)" gradientUnits="userSpaceOnUse"><stop offset="0" stop-color="#33aa2c"/><stop offset="1" stop-color="#52cd22"/></linearGradient><radialGradient id="radial-gradient" cx="-817.48" cy="-743.68" fx="-834.9425485453268" fy="-766.866248998807" r="64.42" gradientTransform="matrix(-0.71, -0.71, -0.71, 0.71, -1065.58, -3.35)" gradientUnits="userSpaceOnUse"><stop offset="0.42"/><stop offset="0.49" stop-color="#040404"/><stop offset="0.56" stop-color="#111"/><stop offset="0.64" stop-color="#262626"/><stop offset="0.71" stop-color="#444"/><stop offset="0.79" stop-color="#6a6a6a"/><stop offset="0.86" stop-color="#999"/><stop offset="0.94" stop-color="#cfcfcf"/><stop offset="1" stop-color="#fff"/></radialGradient></defs><g class="cls-1"><g id="Layer_2" data-name="Layer 2"><g id="Layer_1-2" data-name="Layer 1"><circle class="cls-2" cx="42.82" cy="42.82" r="42.82" transform="translate(-11.32 69.96) rotate(-71.62)"/><path class="cls-3" d="M9.15,42.82A33.68,33.68,0,1,1,42.82,76.49,33.72,33.72,0,0,1,9.15,42.82Zm4,0A29.64,29.64,0,1,0,42.82,13.19,29.67,29.67,0,0,0,13.19,42.82Z"/><path class="cls-3" d="M25.39,49.81a18.49,18.49,0,0,0,34.87,0Z"/><path class="cls-3" d="M23.49,50.48a2,2,0,0,1,1.9-2.69H60.26a2,2,0,0,1,1.65.85,2,2,0,0,1,.25,1.84,20.5,20.5,0,0,1-38.67,0Zm5,1.35a16.46,16.46,0,0,0,28.59,0Z"/><path class="cls-3" d="M32.12,42.08a2,2,0,0,0,1.43-3.45,12.37,12.37,0,0,0-14-2.4,2,2,0,1,0,1.74,3.64,8.33,8.33,0,0,1,9.45,1.62A2,2,0,0,0,32.12,42.08Z"/><path class="cls-3" d="M53.53,42.08A2.06,2.06,0,0,0,55,41.49a8.33,8.33,0,0,1,9.45-1.62,2,2,0,1,0,1.74-3.64,12.36,12.36,0,0,0-14.05,2.4,2,2,0,0,0,1.43,3.45Z"/><circle class="cls-4" cx="42.82" cy="42.82" r="38.35"/></g></g></g></svg>