<svg xmlns="http://www.w3.org/2000/svg" xmlns:xlink="http://www.w3.org/1999/xlink" viewBox="0 0 85.65 85.65"><defs><style>.cls-1{isolation:isolate;}.cls-2{fill:url(#linear-gradient);}.cls-3{fill:#181425;}.cls-4{mix-blend-mode:screen;fill:url(#radial-gradient);}</style><linearGradient id="linear-gradient" x1="198.4" y1="72.98" x2="138.12" y2="12.7" gradientTransform="matrix(-0.96, -0.27, -0.27, 0.96, 216.36, 47.74)" gradientUnits="userSpaceOnUse"><stop offset="0" stop-color="#feae34"/><stop offset="1" stop-color="#fff35e"/></linearGradient><radialGradient id="radial-gradient" cx="-484.09" cy="-605.58" fx="-501.5602969254561" fy="-628.7739950046895" r="64.42" gradientTransform="matrix(-0.71, -0.71, -0.71, 0.71, -732.2, 134.74)" gradientUnits="userSpaceOnUse"><stop offset="0.42"/><stop offset="0.49" stop-color="#040404"/><stop offset="0.56" stop-color="#111"/><stop offset="0.64" stop-color="#262626"/><stop offset="0.71" stop-color="#444"/><stop offset="0.79" stop-color="#6a6a6a"/><stop offset="0.86" stop-color="#999"/><stop offset="0.94" stop-color="#cfcfcf"/><stop offset="1" stop-color="#fff"/></radialGradient></defs><g class="cls-1"><g id="Layer_2" data-name="Layer 2"><g id="Layer_1-2" data-name="Layer 1"><circle class="cls-2" cx="42.82" cy="42.82" r="42.82" transform="translate(-10.1 13.37) rotate(-15.9)"/><path class="cls-3" d="M9.15,42.82A33.68,33.68,0,1,1,42.82,76.49,33.72,33.72,0,0,1,9.15,42.82Zm4,0A29.64,29.64,0,1,0,42.82,13.19,29.67,29.67,0,0,0,13.19,42.82Z"/><path class="cls-3" d="M59.87,35.52a3.65,3.65,0,1,1-3.66,3.65A3.65,3.65,0,0,1,59.87,35.52Zm-34.09,0a3.65,3.65,0,1,0,3.65,3.65A3.64,3.64,0,0,0,25.78,35.52Z"/><path class="cls-3" d="M25.39,55.1H60.26a2,2,0,1,0,0-4H25.39a2,2,0,0,0,0,4Z"/><circle class="cls-4" cx="42.82" cy="42.82" r="38.35"/></g></g></g></svg>