<svg xmlns="http://www.w3.org/2000/svg" xmlns:xlink="http://www.w3.org/1999/xlink" viewBox="0 0 85.65 85.65"><defs><style>.cls-1{isolation:isolate;}.cls-2{fill:url(#linear-gradient);}.cls-3{fill:#181425;}.cls-4{mix-blend-mode:screen;fill:url(#radial-gradient);}</style><linearGradient id="linear-gradient" x1="393.69" y1="72.98" x2="333.41" y2="12.7" gradientTransform="matrix(-0.19, -0.98, -0.98, 0.19, 154.83, 391.32)" gradientUnits="userSpaceOnUse"><stop offset="0" stop-color="#f77622"/><stop offset="1" stop-color="#ffb32c"/></linearGradient><radialGradient id="radial-gradient" cx="-317.4" cy="-536.54" fx="-334.8690028467573" fy="-559.7278929446699" r="64.42" gradientTransform="matrix(-0.71, -0.71, -0.71, 0.71, -565.51, 203.78)" gradientUnits="userSpaceOnUse"><stop offset="0.42"/><stop offset="0.49" stop-color="#040404"/><stop offset="0.56" stop-color="#111"/><stop offset="0.64" stop-color="#262626"/><stop offset="0.71" stop-color="#444"/><stop offset="0.79" stop-color="#6a6a6a"/><stop offset="0.86" stop-color="#999"/><stop offset="0.94" stop-color="#cfcfcf"/><stop offset="1" stop-color="#fff"/></radialGradient></defs><g class="cls-1"><g id="Layer_2" data-name="Layer 2"><g id="Layer_1-2" data-name="Layer 1"><circle class="cls-2" cx="42.82" cy="42.82" r="42.82" transform="translate(-7.44 76.6) rotate(-78.9)"/><path class="cls-3" d="M9.15,42.82A33.68,33.68,0,1,1,42.82,76.49,33.72,33.72,0,0,1,9.15,42.82Zm4,0A29.64,29.64,0,1,0,42.82,13.19,29.68,29.68,0,0,0,13.19,42.82Z"/><path class="cls-3" d="M60.26,59.14a2,2,0,0,0,.67-.11,2,2,0,0,0,1.23-2.58,20.5,20.5,0,0,0-38.67,0A2,2,0,0,0,27.3,57.8a16.46,16.46,0,0,1,31.05,0A2,2,0,0,0,60.26,59.14Z"/><path class="cls-3" d="M22.13,43.47a2,2,0,0,0,1.06-.3l7.4-4.56a2,2,0,0,0-2.12-3.44l-7.4,4.57a2,2,0,0,0,1.06,3.73Z"/><path class="cls-3" d="M63.52,43.47a2,2,0,0,0,1.06-3.73l-7.4-4.57a2,2,0,1,0-2.12,3.44l7.4,4.56A2,2,0,0,0,63.52,43.47Z"/><circle class="cls-4" cx="42.82" cy="42.82" r="38.35"/></g></g></g></svg>