<svg xmlns="http://www.w3.org/2000/svg" xmlns:xlink="http://www.w3.org/1999/xlink" viewBox="0 0 85.65 85.65"><defs><style>.cls-1{isolation:isolate;}.cls-2{fill:url(#linear-gradient);}.cls-3{fill:#181425;}.cls-4{mix-blend-mode:screen;fill:url(#radial-gradient);}</style><linearGradient id="linear-gradient" x1="3.11" y1="72.98" x2="-57.17" y2="12.7" gradientTransform="matrix(-0.31, -0.95, -0.95, 0.31, 75.1, 3.8)" gradientUnits="userSpaceOnUse"><stop offset="0" stop-color="#57c52b"/><stop offset="1" stop-color="#52f44d"/></linearGradient><radialGradient id="radial-gradient" cx="-650.78" cy="-674.63" fx="-668.2513965187555" fy="-697.8200970647091" r="64.42" gradientTransform="matrix(-0.71, -0.71, -0.71, 0.71, -898.89, 65.69)" gradientUnits="userSpaceOnUse"><stop offset="0.42"/><stop offset="0.49" stop-color="#040404"/><stop offset="0.56" stop-color="#111"/><stop offset="0.64" stop-color="#262626"/><stop offset="0.71" stop-color="#444"/><stop offset="0.79" stop-color="#6a6a6a"/><stop offset="0.86" stop-color="#999"/><stop offset="0.94" stop-color="#cfcfcf"/><stop offset="1" stop-color="#fff"/></radialGradient></defs><g class="cls-1"><g id="Layer_2" data-name="Layer 2"><g id="Layer_1-2" data-name="Layer 1"><circle class="cls-2" cx="42.82" cy="42.82" r="42.82" transform="translate(-11.2 70.19) rotate(-71.87)"/><path class="cls-3" d="M9.15,42.82A33.67,33.67,0,1,1,42.82,76.49,33.72,33.72,0,0,1,9.15,42.82Zm4,0A29.64,29.64,0,1,0,42.82,13.19,29.67,29.67,0,0,0,13.19,42.82Z"/><path class="cls-3" d="M59.87,35.52a3.65,3.65,0,1,1-3.66,3.65A3.65,3.65,0,0,1,59.87,35.52Zm-34.09,0a3.65,3.65,0,1,0,3.65,3.65A3.64,3.64,0,0,0,25.78,35.52Z"/><path class="cls-3" d="M42.82,64.53A20.56,20.56,0,0,0,62.16,50.84a2,2,0,0,0-3.81-1.35,16.46,16.46,0,0,1-31,0,2,2,0,1,0-3.81,1.35A20.56,20.56,0,0,0,42.82,64.53Z"/><circle class="cls-4" cx="42.82" cy="42.82" r="38.35"/></g></g></g></svg>